<svg width="206" height="50" viewBox="0 0 206 50" fill="none" xmlns="http://www.w3.org/2000/svg">
<path d="M105.463 39.537C102.62 32.842 103.92 24.815 109.367 19.367C114.815 13.92 122.842 12.62 129.537 15.463C132.38 22.158 131.08 30.185 125.633 35.633C120.185 41.08 112.158 42.38 105.463 39.537V39.537ZM110.353 34.647C110.567 34.8606 110.82 35.03 111.099 35.1456C111.378 35.2612 111.677 35.3207 111.979 35.3207C112.282 35.3207 112.581 35.2612 112.86 35.1456C113.139 35.03 113.392 34.8606 113.606 34.647C113.82 34.4334 113.989 34.1798 114.105 33.9008C114.22 33.6217 114.28 33.3226 114.28 33.0205C114.28 32.7184 114.22 32.4193 114.105 32.1402C113.989 31.8612 113.82 31.6076 113.606 31.394C113.175 30.9626 112.59 30.7203 111.979 30.7203C111.369 30.7203 110.784 30.9626 110.353 31.394C109.922 31.8254 109.679 32.4104 109.679 33.0205C109.679 33.6306 109.922 34.2156 110.353 34.647V34.647Z" fill="#4FAB52"/>
<path d="M109.139 15.139C107.142 15.9852 104.937 16.2157 102.808 15.8009C100.679 15.3861 98.7225 14.345 97.189 12.811C95.6548 11.2774 94.6135 9.32052 94.1988 7.19125C93.784 5.06198 94.0146 2.85735 94.861 0.860003C96.8582 0.013808 99.0626 -0.216678 101.192 0.198089C103.321 0.612856 105.277 1.65398 106.811 3.188C108.345 4.72153 109.386 6.67823 109.801 8.80729C110.216 10.9364 109.985 13.1408 109.139 15.138V15.139ZM105.776 11.776C105.944 11.614 106.077 11.4202 106.169 11.206C106.261 10.9918 106.31 10.7614 106.312 10.5283C106.314 10.2952 106.269 10.064 106.181 9.8483C106.092 9.63255 105.962 9.43655 105.797 9.27171C105.632 9.10687 105.436 8.97651 105.221 8.88822C105.005 8.79992 104.774 8.75547 104.541 8.75745C104.308 8.75944 104.077 8.80781 103.863 8.89976C103.649 8.99171 103.455 9.12539 103.293 9.293C102.973 9.62415 102.796 10.0678 102.8 10.5283C102.804 10.9889 102.988 11.4294 103.314 11.7551C103.64 12.0807 104.08 12.2654 104.541 12.2693C105.001 12.2732 105.445 12.0961 105.776 11.776V11.776Z" fill="#D10074"/>
<path d="M92.554 39.124C91.109 40.219 89.12 40.999 86.88 40.999C83.843 40.999 81.267 39.564 79.882 37.857C78.382 35.955 77.537 33.821 77.537 30.407C77.537 26.993 78.383 24.859 79.882 22.957C81.267 21.25 83.842 19.815 86.88 19.815C88.789 19.8118 90.6545 20.3844 92.233 21.458V19.815H96.27V35.52C96.27 36.451 96.577 36.8 97.385 36.8C97.692 36.8 98 36.723 98 36.723V40.293C97.193 40.641 96.77 40.835 95.616 40.835C94.08 40.835 93.049 40.113 92.554 39.124V39.124ZM91.34 30.407C91.34 28.506 91.07 26.605 89.917 25.324C89.264 24.626 88.187 24.044 86.88 24.044C85.573 24.044 84.496 24.626 83.843 25.324C82.689 26.604 82.42 28.506 82.42 30.407C82.42 32.308 82.69 34.209 83.843 35.49C84.496 36.188 85.573 36.77 86.88 36.77C88.187 36.77 89.264 36.188 89.917 35.49C91.071 34.21 91.34 32.308 91.34 30.407ZM75.96 40.457C74.615 40.806 73.27 41 71.847 41C67.81 41 65.81 38.672 65.81 34.792V24.55H62.158V20.554H65.81V14H70.616V20.553H75.653V24.549H70.616V34.365C70.616 35.917 71.308 36.577 72.846 36.577C73.846 36.577 74.653 36.538 75.961 36.383V40.457H75.96ZM60.51 34.248C60.51 36.188 59.818 37.624 58.78 38.671C57.164 40.301 54.665 41 51.935 41C49.397 41 47.129 40.263 45.475 38.672C44.322 37.547 43.361 35.879 43.361 33.978H47.859C47.859 34.87 48.321 35.84 48.936 36.344C49.705 36.965 50.589 37.237 51.973 37.237C53.588 37.237 56.049 36.887 56.049 34.676C56.049 33.512 55.279 32.736 54.049 32.542C52.281 32.27 50.282 32.154 48.513 31.766C45.783 31.184 43.938 28.934 43.938 26.373C43.938 24.317 44.784 22.881 45.975 21.833C47.436 20.553 49.551 19.816 52.05 19.816C54.434 19.816 56.856 20.592 58.317 22.183C59.394 23.347 60.086 24.86 60.086 26.334H55.51C55.51 25.558 55.164 24.937 54.702 24.433C54.125 23.851 53.087 23.502 52.088 23.502C51.396 23.502 50.742 23.502 50.011 23.812C49.166 24.162 48.474 24.899 48.474 25.946C48.474 27.382 49.704 27.809 50.78 27.964C52.587 28.197 53.087 28.235 55.048 28.546C58.201 29.05 60.508 31.068 60.508 34.249L60.51 34.248ZM35.825 39.124C34.2332 40.3425 32.2837 41.0016 30.279 40.999C27.31 40.999 24.793 39.564 23.439 37.857C21.974 35.955 21.147 33.821 21.147 30.407C21.147 26.993 21.974 24.859 23.44 22.957C24.793 21.25 27.31 19.815 30.279 19.815C32.31 19.815 34.13 20.487 35.511 21.458V19.815H39.456V35.52C39.456 36.451 39.757 36.8 40.546 36.8C40.846 36.8 41.147 36.723 41.147 36.723V40.293C40.358 40.641 39.945 40.835 38.817 40.835C37.316 40.835 36.308 40.113 35.825 39.124V39.124ZM34.95 30.407C34.95 28.506 34.681 26.605 33.528 25.324C32.874 24.626 31.798 24.044 30.49 24.044C29.183 24.044 28.107 24.626 27.453 25.324C26.3 26.604 26.03 28.506 26.03 30.407C26.03 32.308 26.3 34.209 27.453 35.49C28.107 36.188 29.183 36.77 30.49 36.77C31.798 36.77 32.874 36.188 33.528 35.49C34.681 34.21 34.95 32.308 34.95 30.407ZM12.757 24.63L20.5 41H14.877L9.44 29.18L5.272 34.902V41H0.5V14H5.273V26.885L14.692 14H20.5L12.757 24.629V24.63ZM160.44 21.72C160.44 27.16 156.96 30.84 150.44 30.84H144.44V41H139.32V12.64H150.44C156.96 12.64 160.44 16.28 160.44 21.72ZM155.24 21.76C155.24 19.04 153.68 17.16 150.24 17.16H144.44V26.32H150.24C153.68 26.32 155.24 24.48 155.24 21.76ZM176.554 39.124C175.109 40.219 173.12 40.999 170.88 40.999C167.843 40.999 165.267 39.564 163.882 37.857C162.382 35.955 161.537 33.821 161.537 30.407C161.537 26.993 162.383 24.859 163.882 22.957C165.267 21.25 167.842 19.815 170.88 19.815C172.789 19.8118 174.655 20.3844 176.233 21.458V19.815H180.27V35.52C180.27 36.451 180.577 36.8 181.385 36.8C181.692 36.8 182 36.723 182 36.723V40.293C181.193 40.641 180.77 40.835 179.616 40.835C178.08 40.835 177.049 40.113 176.554 39.124V39.124ZM175.34 30.407C175.34 28.506 175.07 26.605 173.917 25.324C173.264 24.626 172.187 24.044 170.88 24.044C169.573 24.044 168.496 24.626 167.843 25.324C166.689 26.604 166.42 28.506 166.42 30.407C166.42 32.308 166.69 34.209 167.843 35.49C168.496 36.188 169.573 36.77 170.88 36.77C172.187 36.77 173.264 36.188 173.917 35.49C175.071 34.21 175.34 32.308 175.34 30.407ZM205.32 20.2L196.16 44.56C195.12 47.28 193.4 49.76 189.76 49.76C188.12 49.76 187 49.52 185.92 49.24V45.08C187.24 45.32 187.6 45.44 188.72 45.44C189.64 45.44 190.6 45.12 191.12 43.88L192.32 40.96L184.12 20.2H189.6L195.04 35.24L200.24 20.2H205.32V20.2Z" fill="white"/>
</svg>
