<svg xmlns="http://www.w3.org/2000/svg" width="67" height="24" viewBox="0 0 67 24"><g fill="none" fill-rule="evenodd"><g fill="#EC2127"><path d="M63.333 9.476c0-.73.568-1.322 1.26-1.322.698 0 1.26.59 1.26 1.322 0 .732-.562 1.323-1.26 1.323-.692 0-1.26-.592-1.26-1.324zm1.26 1.01c.53 0 .964-.454.964-1.01 0-.554-.433-1.003-.963-1.003-.528 0-.962.45-.962 1.003 0 .556.434 1.01.962 1.01zm-.17-.43h-.26V8.89h.47c.095 0 .202.006.284.065.09.066.14.176.14.293 0 .13-.073.25-.19.293l.202.516h-.288l-.17-.457h-.19v.456zm0-.655h.143c.053 0 .115.003.16-.023.043-.03.062-.085.062-.135 0-.044-.025-.097-.063-.117-.04-.026-.116-.02-.162-.02h-.14V9.4zM45.3.683l-.344 2.243c-.75-.398-1.3-.554-1.89-.554-1.57 0-2.68 1.594-2.68 3.87 0 1.57.744 2.517 1.97 2.517.52 0 1.093-.167 1.793-.533l-.37 2.36c-.773.222-1.278.3-1.864.3-2.275 0-3.69-1.71-3.69-4.46 0-3.698 1.955-6.28 4.752-6.28.36 0 .684.035.947.11l.87.228c.258.103.316.118.506.2zM38.3 2.22c-.067-.013-.14-.022-.216-.022-.695 0-1.088.367-1.734 1.368l.187-1.277h-1.91l-1.297 8.405h2.12c.76-5.138.953-6.025 1.97-6.025.06 0 .067 0 .154.008.187-1.012.444-1.757.798-2.436l-.072-.023zM25.665 10.59c-.574.19-1.027.278-1.514.278-1.076 0-1.664-.655-1.664-1.85 0-.234.018-.487.06-.753l.13-.82.098-.67.915-5.735h2.097l-.24 1.247h1.08l-.298 2.042H25.25l-.557 3.51c-.02.153-.035.268-.035.347 0 .43.22.622.72.622.242 0 .425-.026.566-.08l-.28 1.86zm-8.318-5.645c0 1.06.49 1.795 1.6 2.343.85.422.984.544.984.927 0 .522-.376.764-1.207.764-.626 0-1.21-.103-1.886-.335l-.292 1.94.095.02.388.08c.124.027.308.05.55.077.503.047.89.07 1.162.07 2.213 0 3.237-.892 3.237-2.807 0-1.15-.426-1.83-1.48-2.34-.88-.42-.98-.517-.98-.908 0-.456.348-.69 1.026-.69.413 0 .974.05 1.51.125l.3-1.94c-.55-.094-1.367-.167-1.852-.167-2.347 0-3.16 1.29-3.153 2.842zm44.76 5.748h-1.996l.106-.824c-.582.652-1.18.936-1.95.936-1.543 0-2.555-1.388-2.555-3.49 0-2.795 1.573-5.156 3.44-5.156.82 0 1.44.354 2.023 1.15l.46-2.952h2.08l-1.605 10.337zm-3.113-1.98c.986 0 1.675-1.167 1.675-2.83 0-1.07-.395-1.65-1.124-1.65-.956 0-1.635 1.17-1.635 2.826 0 1.102.366 1.656 1.084 1.656zM32.35 10.52c-.723.227-1.42.34-2.17.338-2.352 0-3.582-1.292-3.582-3.763 0-2.89 1.564-5.015 3.69-5.015 1.733 0 2.847 1.192 2.847 3.06 0 .618-.075 1.22-.263 2.073h-4.195c-.018.13-.02.187-.02.262 0 .982.627 1.477 1.855 1.477.753 0 1.43-.164 2.19-.536l-.353 2.104zm-1.185-5.005c.012-.176.015-.32.015-.426 0-.687-.372-1.088-1-1.088-.67 0-1.148.535-1.345 1.507l2.33.006zM8.876 10.695H6.768L7.975 2.75l-2.698 7.945H3.832l-.174-7.897-1.272 7.897H.41L2.06.357h3.037l.083 6.397L7.23.357h3.28M14.308 6.95c-.223-.026-.32-.036-.473-.036-1.195 0-1.8.434-1.8 1.284 0 .523.297.856.757.856.86 0 1.48-.856 1.516-2.104zm1.534 3.745h-1.747l.038-.873c-.532.696-1.244 1.02-2.21 1.02-1.148 0-1.93-.938-1.93-2.29 0-2.053 1.368-3.245 3.707-3.245.24 0 .545.02.86.063.065-.28.082-.4.082-.546 0-.555-.366-.766-1.355-.766-.597 0-1.283.09-1.755.24l-.293.085-.186.055.29-1.886c1.054-.326 1.748-.452 2.53-.452 1.813 0 2.774.853 2.774 2.464 0 .42-.03.73-.175 1.668l-.44 2.978-.073.538-.055.43-.036.292-.028.225zM48.936 6.95c-.22-.026-.322-.036-.47-.036-1.2 0-1.807.434-1.807 1.284 0 .523.3.856.76.856.863 0 1.478-.856 1.516-2.104zm1.536 3.745h-1.75l.04-.873c-.532.696-1.244 1.02-2.21 1.02-1.147 0-1.934-.938-1.934-2.29 0-2.053 1.368-3.245 3.712-3.245.238 0 .546.02.858.063.064-.28.083-.4.083-.546 0-.555-.365-.766-1.354-.766-.6 0-1.284.09-1.752.24l-.3.085-.182.055.293-1.886c1.055-.326 1.747-.452 2.523-.452 1.817 0 2.777.853 2.777 2.464 0 .42-.036.73-.172 1.668l-.445 2.978-.066.538-.06.43-.037.292-.023.225zm5.894-8.476c-.063-.013-.132-.022-.213-.022-.692 0-1.088.367-1.737 1.368l.188-1.277h-1.91l-1.29 8.405h2.114c.76-5.138.958-6.025 1.968-6.025.065 0 .06-.006.148.008.19-1.012.45-1.757.804-2.436l-.072-.023z"/></g><g fill="#F89620"><path d="M47.51 18.847c0 1.906-.59 3.028-1.522 3.028-.68.02-1.092-.735-1.092-1.867 0-1.338.602-2.855 1.57-2.855.776 0 1.045.822 1.045 1.694zm2.077.035c0-2.118-1.05-3.767-3.02-3.767-2.27 0-3.74 2.005-3.74 4.957 0 2.113.87 3.84 3.017 3.84 2.17 0 3.743-1.53 3.743-5.03zm-6.082-5.254l-.322 2.24c-.702-.395-1.212-.56-1.764-.56-1.475 0-2.505 1.6-2.505 3.876 0 1.57.69 2.52 1.838 2.52.49 0 1.026-.166 1.677-.532l-.342 2.358c-.73.224-1.205.3-1.747.3-2.123 0-3.446-1.712-3.446-4.462 0-3.7 1.826-6.28 4.442-6.28.338 0 .638.042.886.11l.807.23c.248.097.3.115.475.2zm-13.047 1.54c-.06-.017-.13-.024-.203-.024-.64 0-1.015.37-1.615 1.367l.175-1.274H27.03l-1.204 8.407h1.97c.71-5.143.896-6.028 1.84-6.028.057 0 .063 0 .145.01.18-1.017.418-1.762.75-2.443l-.072-.014zm25.736 8.385h-1.862l.096-.82c-.54.647-1.105.933-1.825.933-1.436 0-2.384-1.39-2.384-3.49 0-2.793 1.47-5.16 3.21-5.16.768 0 1.35.362 1.888 1.158l.435-2.956h1.94l-1.5 10.335zm-2.913-1.977c.93 0 1.57-1.168 1.57-2.833 0-1.07-.366-1.647-1.044-1.647-.896 0-1.533 1.17-1.533 2.83 0 1.094.342 1.65 1.008 1.65zm-41.3 1.942c-.67.23-1.322.343-2.017.343-2.2 0-3.35-1.294-3.35-3.764 0-2.885 1.462-5.013 3.445-5.013 1.624 0 2.66 1.19 2.66 3.057 0 .618-.07 1.223-.24 2.075H8.55c-.01.126-.015.188-.015.26 0 .98.588 1.476 1.73 1.476.705 0 1.342-.163 2.048-.532l-.332 2.1zm-1.1-5c.008-.18.014-.32.014-.428 0-.686-.346-1.087-.932-1.087-.63 0-1.077.54-1.257 1.505l2.174.01zm24.54 5c-.673.23-1.327.343-2.02.343-2.205 0-3.352-1.294-3.352-3.764 0-2.885 1.463-5.013 3.445-5.013 1.624 0 2.663 1.19 2.663 3.057 0 .618-.074 1.223-.248 2.075h-3.92c-.01.126-.018.188-.018.26 0 .98.587 1.476 1.73 1.476.704 0 1.342-.163 2.048-.532l-.328 2.1zm-1.108-5c.013-.18.02-.32.02-.428 0-.686-.35-1.087-.932-1.087-.63 0-1.077.54-1.26 1.505l2.172.01zm28.605 5c-.68.23-1.326.343-2.024.343-2.2 0-3.352-1.294-3.352-3.764 0-2.885 1.467-5.013 3.448-5.013 1.624 0 2.66 1.19 2.66 3.057 0 .618-.07 1.223-.243 2.075h-3.923c-.014.126-.017.188-.017.26 0 .98.59 1.476 1.732 1.476.705 0 1.34-.163 2.048-.532l-.328 2.1zm-1.107-5c.008-.18.014-.32.014-.428 0-.686-.344-1.087-.93-1.087-.63 0-1.076.54-1.26 1.505l2.176.01zm-55.662-2.97c-.385-.258-.908-.483-1.646-.483-.796 0-1.437.165-1.437 1.01 0 1.494 2.904.936 2.904 4.135 0 2.913-1.918 3.668-3.652 3.668-.77 0-1.66-.255-2.313-.545l.47-2.14c.395.357 1.192.603 1.843.603.62 0 1.593-.17 1.593-1.25 0-1.693-2.902-1.063-2.902-4.034 0-2.717 1.696-3.53 3.332-3.53.92 0 1.787.134 2.294.47l-.486 2.096zm11.602 7.967c-.406.195-.95.324-1.75.324-1.722 0-2.79-1.72-2.79-3.81 0-2.737 1.545-4.92 3.82-4.92.495 0 1.25.214 1.85.56l-.437 2.007c-.423-.277-.863-.454-1.316-.454-1.053 0-1.806.964-1.806 2.69 0 .994.547 1.81 1.41 1.81.512 0 .874-.11 1.315-.366l-.295 2.158zm7.37-2.105c-.1.724-.194 1.426-.25 2.18h-1.897l.16-1.36h-.02c-.593.925-1.208 1.554-2.282 1.554-1.19 0-1.835-1.25-1.835-2.884 0-.563.035-.88.16-1.76l.538-3.89h2.11l-.566 3.902c-.057.42-.137.835-.137 1.27 0 .49.224.988.793.957.866 0 1.376-1.057 1.52-2.29l.584-3.84h2.043l-.92 6.16zM64.884 23.49h-.32v-1.396h-.46v-.298h1.242v.298h-.462M67 23.49h-.298v-1.417h-.004l-.285 1.416H66.1l-.278-1.417h-.005v1.416h-.297v-1.694h.465l.277 1.334h.005l.272-1.334H67"/></g></g></svg>