<svg xmlns="http://www.w3.org/2000/svg" width="64" height="36" viewBox="0 0 64 36"><g fill="none" fill-rule="evenodd"><path fill="#3A57A7" d="M54.53 23.88c-.088.706-.204 1.384-.35 2.034-.605-.197-1.305-.512-2.293-.447-.59.04-1.287.265-1.296.794-.01.587.958.936 1.497 1.192.97.463 2.013 1.08 2.094 2.333.064.964-.386 1.802-.896 2.283-1.36 1.278-4.375 1.414-6.434.596.13-.683.245-1.378.35-2.085.797.337 1.89.792 3.092.645.547-.068 1.216-.385 1.196-.943-.023-.68-1.3-1.086-1.945-1.44-.747-.41-1.6-1.092-1.645-2.134-.03-.694.24-1.343.6-1.786 1.06-1.315 3.792-1.782 6.032-1.043zM30.09 10.588h2.75l-1.694 10.618h-2.75M20.562 10.587h4.21c2.678 0 3.374 1.535 3.082 3.37-.244 1.53-1.35 2.552-2.785 2.915l2.665 4.334h-3.45l-2-4.17-.666 4.17h-2.75l1.692-10.62zm2.413 2.112l-.424 2.663h.796c.772 0 1.504-.6 1.625-1.333.122-.732-.41-1.332-1.183-1.332h-.812zM42.646 10.588h2.75l-1.693 10.618h-2.75M47.484 10.587h6.038l-.368 2.31h-3.287l-.29 1.814h3.125l-.368 2.31H49.21l-.3 1.878h3.287l-.368 2.308H45.79M12.89 10.587h6.037l-.368 2.31H15.27l-.29 1.814h3.126l-.37 2.31h-3.123l-.3 1.878h3.287l-.367 2.308h-6.037M34.92 10.587h6.106l-.368 2.31h-3.356l-.293 1.814h3.052l-.37 2.31H36.64l-.667 4.186h-2.745M55.14 10.587h3.583c4.27 0 5.242 3.214 4.908 5.312-.478 2.997-3.163 5.306-6.6 5.306h-3.584l1.694-10.62zm2.38 2.31h.57c2.1 0 2.922 1.475 2.696 2.898-.305 1.91-1.684 3.102-3.487 3.102h-.736l.957-6zM0 9.14h5.087l.604 7.715C9.057 11.058 12.478 5.48 15.923 0h1.66c-3.65 7-7.25 14.046-10.738 21.206H3.11L2.2 12.7c-.227-2.113-.655-3.01-2.2-3.236V9.14z"/><path fill="#F8981D" d="M1.926 4.754l4.337 1.83.377 4.806h.32l3.937-6.633v-.333H1.925"/><path fill="#3A57A7" d="M21.976 28.81c.658 0 1.105.6.998 1.34-.107.74-.726 1.34-1.383 1.34s-1.104-.6-.997-1.34c.106-.74.726-1.34 1.383-1.34zm-2.22-5.107h1.78l-.6 4.185c.507-.488 1.13-.79 1.823-.79 1.427 0 2.363 1.37 2.11 3.06-.25 1.69-1.597 3.06-3.025 3.06-.704 0-1.21-.316-1.552-.847l-.095.664h-1.78l1.337-9.33z"/><path fill="#3A57A7" d="M25.024 27.24h2.135l.955 2.966 1.855-2.966h2.064l-5.416 8.657h-2.064l2.284-3.65M42.645 33.03l1.564-9.33h2.56l-1.566 9.33M40.506 23.68c-.882 2.067-1.635 4.263-2.543 6.303l-.267-1.224c0-.006-.003-.01-.004-.016l.045.218c-.197-.644-.533-1.252-.962-1.81l-.034-.042c-.074-.096-.154-.19-.234-.282l-.15-.17c-.62-.674-1.37-1.256-2.164-1.717l2.275 8.07h2.743c1.29-3.148 2.684-6.195 3.99-9.33h-2.694z"/><path fill="#F8981D" d="M35.676 23.682h-4.183v.203c2.408.468 5.448 2.478 6.244 5.077l-.898-4.346c-.123-.67-.592-.934-1.164-.934z"/><path fill="#3A57A7" d="M63.157 33.06h-2.343c-.152-.444-.194-.998-.35-1.44h-3.19l-.6 1.44h-2.692l3.49-7.99c.155-.35.432-.83.55-1.042.176-.323.862-.347 1.154-.347h1.937l2.044 9.38zm-3.883-6.794l-1.303 3.47h2.108l-.804-3.47z"/></g></svg>