<?xml version="1.0" encoding="utf-8"?>
<!-- Generator: Adobe Illustrator 18.1.1, SVG Export Plug-In . SVG Version: 6.00 Build 0)  -->
<svg version="1.1" id="kasta-logo" xmlns="http://www.w3.org/2000/svg" xmlns:xlink="http://www.w3.org/1999/xlink" x="0px" y="0px"
	 viewBox="0 0 240 80" enable-background="new 0 0 240 80" xml:space="preserve">
<g>
	<g id="Group" transform="translate(256.000000, 0.000000)">
		<path id="Shape" fill="#4FAB52" d="M-65.3,76.8c-5.5-12.9-3-28.4,7.5-38.9s26-13,38.9-7.5c5.5,12.9,3,28.4-7.5,38.9
			S-52.4,82.3-65.3,76.8z M-55.9,67.3c1.7,1.7,4.5,1.7,6.3,0c1.7-1.7,1.7-4.5,0-6.3c-1.7-1.7-4.5-1.7-6.3,0
			C-57.6,62.8-57.6,65.6-55.9,67.3z"/>
		<path id="Shape_1_" fill="#D10074" d="M-59.2,31c-8,3.4-17.6,1.8-24.2-4.7s-8.1-16.2-4.7-24.2c8-3.4,17.6-1.8,24.2,4.7
			S-55.8,23-59.2,31z M-66,24.2c1.4-1.4,1.4-3.6,0-5c-1.4-1.4-3.6-1.4-5,0c-1.4,1.4-1.4,3.6,0,5C-69.7,25.6-67.4,25.6-66,24.2z"/>
	</g>
	<path id="Shape_2_" d="M164.8,75.9c-2.6,1.9-6.1,3.3-10.1,3.3c-5.4,0-10-2.6-12.5-5.6c-2.7-3.4-4.2-7.2-4.2-13.2s1.5-9.9,4.2-13.2
		c2.5-3,7.1-5.6,12.5-5.6c3.7,0,7,1.2,9.5,2.9v-2.9h7.2v27.9c0,1.7,0.5,2.3,2,2.3c0.5,0,1.1-0.1,1.1-0.1V78c-1.4,0.6-2.2,1-4.2,1
		C167.5,79,165.7,77.7,164.8,75.9z M162.6,60.5c0-3.4-0.5-6.8-2.5-9c-1.2-1.2-3.1-2.3-5.4-2.3c-2.3,0-4.2,1-5.4,2.3
		c-2.1,2.3-2.5,5.7-2.5,9c0,3.4,0.5,6.8,2.5,9c1.2,1.2,3.1,2.3,5.4,2.3c2.3,0,4.2-1,5.4-2.3C162.2,67.2,162.6,63.8,162.6,60.5z
		 M135.3,78.3c-2.4,0.6-4.8,1-7.3,1c-7.2,0-10.7-4.1-10.7-11V50h-6.5v-7.1h6.5V31.3h8.6v11.6h9V50h-9v17.5c0,2.8,1.2,3.9,4,3.9
		c1.8,0,3.2-0.1,5.5-0.3V78.3z M107.7,67.3c0,3.4-1.2,6-3.1,7.9c-2.9,2.9-7.3,4.1-12.2,4.1c-4.5,0-8.6-1.3-11.5-4.1
		c-2.1-2-3.8-5-3.8-8.3h8c0,1.6,0.8,3.3,1.9,4.2c1.4,1.1,2.9,1.6,5.4,1.6c2.9,0,7.3-0.6,7.3-4.6c0-2.1-1.4-3.4-3.6-3.8
		c-3.1-0.5-6.7-0.7-9.9-1.4c-4.9-1-8.1-5-8.1-9.6c0-3.7,1.5-6.2,3.6-8.1c2.6-2.3,6.4-3.6,10.8-3.6c4.2,0,8.6,1.4,11.2,4.2
		c1.9,2.1,3.1,4.8,3.1,7.4h-8.1c0-1.4-0.6-2.5-1.4-3.4c-1-1-2.9-1.7-4.7-1.7c-1.2,0-2.4,0-3.7,0.6c-1.5,0.6-2.7,1.9-2.7,3.8
		c0,2.6,2.2,3.3,4.1,3.6c3.2,0.4,4.1,0.5,7.6,1C103.6,58,107.7,61.6,107.7,67.3z M64.4,75.9c-2.6,1.9-6.1,3.3-10.1,3.3
		c-5.4,0-10-2.6-12.5-5.6c-2.7-3.4-4.2-7.2-4.2-13.2s1.5-9.9,4.2-13.2c2.5-3,7.1-5.6,12.5-5.6c3.7,0,7,1.2,9.5,2.9v-2.9H71v27.9
		c0,1.7,0.5,2.3,2,2.3c0.5,0,1.1-0.1,1.1-0.1V78c-1.4,0.6-2.2,1-4.2,1C67.1,79,65.3,77.7,64.4,75.9z M62.2,60.5c0-3.4-0.5-6.8-2.5-9
		c-1.2-1.2-3.1-2.3-5.4-2.3s-4.2,1-5.4,2.3c-2.1,2.3-2.5,5.7-2.5,9c0,3.4,0.5,6.8,2.5,9c1.2,1.2,3.1,2.3,5.4,2.3s4.2-1,5.4-2.3
		C61.7,67.2,62.2,63.8,62.2,60.5z M22.2,50.1l14,29H26l-9.8-20.9L8.6,68.3v10.8H0V31.3h8.6v22.8l17-22.8h10.5L22.2,50.1z"/>
</g>
</svg>
